# xmcd CD database file
# Copyright (C) 1993-1997  Ti Kan
#
# Track frame offsets:
#	150
#	15935
#	27407
#	30697
#	45012
#	56677
#	83840
#	95570
#	110277
#	131640
#	142470
#	162937
#
# Disc length: 2378 seconds
#
# Revision: 1
# Processed by: cddbd v1.4b41PL1 Copyright (c) Steve Scherf et al.
# Submitted via: xmcd 2.1 PL1
#
DISCID=9609480c
DTITLE=The Love Dogs/I'm Yo Dog
DYEAR=1900
DGENRE=
TTITLE0=Big and Hot
TTITLE1=She Won't Say Yes
TTITLE2=Nobody's Dog (Love Dog Intro)
TTITLE3=I'm Yo Dog
TTITLE4=Much Later
TTITLE5=Learned to Live Without You
TTITLE6=Safronia B.
TTITLE7=Holdin' Out So Long
TTITLE8=Just Good Lovin'
TTITLE9=Drink Up, Drink Up
TTITLE10=Vintage Love
TTITLE11=Can't Get Rid Of You
EXTD=
EXTT0=
EXTT1=
EXTT2=
EXTT3=
EXTT4=
EXTT5=
EXTT6=
EXTT7=
EXTT8=
EXTT9=
EXTT10=
EXTT11=
PLAYORDER=
